<svg xmlns="http://www.w3.org/2000/svg" viewBox="0 0 582.27 237.67"><defs><style>.cls-1{fill:#010101;}</style></defs><g id="Capa_2" data-name="Capa 2"><g id="Capa_1-2" data-name="Capa 1"><path class="cls-1" d="M261.78,226a14,14,0,0,1-.86,5.17,9.38,9.38,0,0,1-6.17,5.81,15.87,15.87,0,0,1-4.91.72,20.08,20.08,0,0,1-5.53-.82,15.14,15.14,0,0,1-4.91-2.36l3.34-4.77a9.79,9.79,0,0,0,3.24,1.93,10.43,10.43,0,0,0,3.49.63,5.59,5.59,0,0,0,4.34-1.54,5.9,5.9,0,0,0,1.41-4.12V225.4h-.13a6.57,6.57,0,0,1-2.52,1.95,8.56,8.56,0,0,1-3.63.74,9.63,9.63,0,0,1-4.12-.84,9.16,9.16,0,0,1-3-2.26,9.92,9.92,0,0,1-1.89-3.33,12.09,12.09,0,0,1-.65-4,12.35,12.35,0,0,1,.65-4,10.46,10.46,0,0,1,1.89-3.38,9.24,9.24,0,0,1,3-2.34,9.52,9.52,0,0,1,7.75-.11,6.38,6.38,0,0,1,2.81,2.41h.08v-2.61h6.32Zm-6.36-8.36a5.66,5.66,0,0,0-.35-2,5.11,5.11,0,0,0-1-1.65,4.71,4.71,0,0,0-3.59-1.53,4.76,4.76,0,0,0-2,.41A4.55,4.55,0,0,0,247,214a4.87,4.87,0,0,0-.94,1.63,6.26,6.26,0,0,0-.32,2,6.15,6.15,0,0,0,.32,2,5.17,5.17,0,0,0,.94,1.65,4.81,4.81,0,0,0,1.49,1.14,4.62,4.62,0,0,0,2,.43,4.9,4.9,0,0,0,2.06-.43,5.06,5.06,0,0,0,1.55-1.12,4.94,4.94,0,0,0,1-1.63A5.76,5.76,0,0,0,255.42,217.61Z"/><path class="cls-1" d="M272.63,210.35a11.68,11.68,0,0,1,4.18-2.57,14.31,14.31,0,0,1,4.87-.85,13,13,0,0,1,4.34.63,6.39,6.39,0,0,1,2.87,2,8.2,8.2,0,0,1,1.61,3.34,19.7,19.7,0,0,1,.51,4.79v10.23H284.9v-2.16h-.12a5.06,5.06,0,0,1-2.35,2,8.33,8.33,0,0,1-3.4.69,10.29,10.29,0,0,1-2.53-.33,7.39,7.39,0,0,1-2.38-1,5.81,5.81,0,0,1-1.78-2,6.08,6.08,0,0,1-.69-3,5.14,5.14,0,0,1,1.2-3.55,7.87,7.87,0,0,1,3.1-2.07,16.22,16.22,0,0,1,4.22-1,41.48,41.48,0,0,1,4.52-.25v-.32a2.5,2.5,0,0,0-1.06-2.23,4.57,4.57,0,0,0-2.6-.71,6.64,6.64,0,0,0-2.76.61A9,9,0,0,0,276,214ZM284.9,219H284c-.73,0-1.47,0-2.22.11a8.78,8.78,0,0,0-2,.38,3.66,3.66,0,0,0-1.44.84,1.93,1.93,0,0,0-.57,1.45,1.75,1.75,0,0,0,.26,1,2.08,2.08,0,0,0,.67.65,2.77,2.77,0,0,0,.94.34,5.21,5.21,0,0,0,1,.11,3.82,3.82,0,0,0,4.2-4.16Z"/><path class="cls-1" d="M313.91,213.57a7.48,7.48,0,0,0-1.91-1.3,5.23,5.23,0,0,0-2.33-.53,4,4,0,0,0-1.73.37,1.27,1.27,0,0,0-.79,1.26,1.25,1.25,0,0,0,.87,1.22,18.62,18.62,0,0,0,2.84.82,15,15,0,0,1,2.3.69,8.3,8.3,0,0,1,2.1,1.18,5.72,5.72,0,0,1,1.51,1.8,5.21,5.21,0,0,1,.57,2.52,6.13,6.13,0,0,1-2.8,5.39,8.73,8.73,0,0,1-2.79,1.18,13.6,13.6,0,0,1-3.1.36,15.33,15.33,0,0,1-4.87-.79,10.24,10.24,0,0,1-4-2.34l3.75-4a7.46,7.46,0,0,0,2.2,1.63,6,6,0,0,0,2.77.65,3.72,3.72,0,0,0,1.61-.38,1.4,1.4,0,0,0,.8-1.37,1.48,1.48,0,0,0-1-1.39,17.8,17.8,0,0,0-3.06-.93,15.66,15.66,0,0,1-2.12-.66,6.34,6.34,0,0,1-1.89-1.1,5.36,5.36,0,0,1-1.37-1.71,5.26,5.26,0,0,1-.53-2.44,6,6,0,0,1,.77-3.12,6.59,6.59,0,0,1,2-2.1,8.6,8.6,0,0,1,2.71-1.2,11.63,11.63,0,0,1,3-.39,14.4,14.4,0,0,1,4.46.71,9.63,9.63,0,0,1,3.69,2.14Z"/><path class="cls-1" d="M335.35,212.55v7.78a3.5,3.5,0,0,0,.55,2.15,2.36,2.36,0,0,0,2,.71,6.28,6.28,0,0,0,1-.08,3.31,3.31,0,0,0,.92-.24l.08,4.89a10.9,10.9,0,0,1-1.75.43,12.64,12.64,0,0,1-2.12.18,9.94,9.94,0,0,1-3.42-.51,5.31,5.31,0,0,1-2.23-1.47,5.9,5.9,0,0,1-1.2-2.29,11.31,11.31,0,0,1-.37-3v-8.59h-3.26v-5h3.22v-5.34h6.57v5.34h4.77v5Z"/><path class="cls-1" d="M363,213.08a5.63,5.63,0,0,0-.88-.16,7.87,7.87,0,0,0-.84,0,4.72,4.72,0,0,0-2.26.49,4.61,4.61,0,0,0-1.47,1.18,4.51,4.51,0,0,0-.79,1.5,5.13,5.13,0,0,0-.24,1.42v10.41h-6.69V207.6h6.44v2.94h.08a6.7,6.7,0,0,1,2.2-2.55,5.74,5.74,0,0,1,3.31-1,6.85,6.85,0,0,1,.79,0,3.54,3.54,0,0,1,.63.12Z"/><path class="cls-1" d="M393.57,217.65a10.89,10.89,0,0,1-.89,4.5,10.18,10.18,0,0,1-2.45,3.43,11.19,11.19,0,0,1-3.59,2.18,12.67,12.67,0,0,1-8.7,0,11,11,0,0,1-3.59-2.18,10.1,10.1,0,0,1-2.42-3.43,11.68,11.68,0,0,1,0-9,10,10,0,0,1,2.42-3.38,10.67,10.67,0,0,1,3.59-2.12,13.33,13.33,0,0,1,8.7,0,10.87,10.87,0,0,1,3.59,2.12,10.07,10.07,0,0,1,2.45,3.38A10.84,10.84,0,0,1,393.57,217.65Zm-6.44,0a6,6,0,0,0-.32-1.92,5.17,5.17,0,0,0-.94-1.65,4.87,4.87,0,0,0-1.51-1.16,5,5,0,0,0-4.16,0,4.67,4.67,0,0,0-1.49,1.16,5.06,5.06,0,0,0-.89,1.65,6.1,6.1,0,0,0,0,3.84,5.25,5.25,0,0,0,.92,1.69,4.53,4.53,0,0,0,1.5,1.2,4.66,4.66,0,0,0,5.67-1.2,5.45,5.45,0,0,0,.92-1.69A6.31,6.31,0,0,0,387.13,217.65Z"/><path class="cls-1" d="M416.94,227.88V216.79a9.51,9.51,0,0,0-.14-1.63,4.54,4.54,0,0,0-.47-1.36,2.38,2.38,0,0,0-.92-.94,2.91,2.91,0,0,0-1.49-.35,3.43,3.43,0,0,0-1.57.35,3.23,3.23,0,0,0-1.12,1,4.23,4.23,0,0,0-.67,1.4,6,6,0,0,0-.22,1.65v11h-6.73v-20.3h6.48v2.81h.08a7.24,7.24,0,0,1,1-1.28,6,6,0,0,1,1.39-1.08,9.29,9.29,0,0,1,1.73-.74,6.86,6.86,0,0,1,2-.28,7.47,7.47,0,0,1,3.46.73,6.67,6.67,0,0,1,2.31,1.9,7.49,7.49,0,0,1,1.26,2.67,12,12,0,0,1,.39,3v12.55Z"/><path class="cls-1" d="M456,217.65a10.89,10.89,0,0,1-.89,4.5,10.18,10.18,0,0,1-2.45,3.43,11.19,11.19,0,0,1-3.59,2.18,12.67,12.67,0,0,1-8.7,0,11,11,0,0,1-3.59-2.18,10.1,10.1,0,0,1-2.42-3.43,11.68,11.68,0,0,1,0-9,10,10,0,0,1,2.42-3.38,10.67,10.67,0,0,1,3.59-2.12,13.33,13.33,0,0,1,8.7,0,10.87,10.87,0,0,1,3.59,2.12,10.07,10.07,0,0,1,2.45,3.38A10.84,10.84,0,0,1,456,217.65Zm-6.44,0a6,6,0,0,0-.32-1.92,5.17,5.17,0,0,0-.94-1.65,4.87,4.87,0,0,0-1.51-1.16,5,5,0,0,0-4.16,0,4.52,4.52,0,0,0-1.48,1.16,4.9,4.9,0,0,0-.9,1.65,6.1,6.1,0,0,0,0,3.84,5.25,5.25,0,0,0,.92,1.69,4.53,4.53,0,0,0,1.5,1.2,4.66,4.66,0,0,0,5.67-1.2,5.45,5.45,0,0,0,.92-1.69A6.31,6.31,0,0,0,449.58,217.65Zm-3.26-13.09h-5.05l4.24-5.87h6.76Z"/><path class="cls-1" d="M492,227.88V216.79a11,11,0,0,0-.12-1.65,4.27,4.27,0,0,0-.45-1.36,2.59,2.59,0,0,0-.88-.92,2.71,2.71,0,0,0-1.45-.35,2.83,2.83,0,0,0-1.48.37,3.11,3.11,0,0,0-1.06,1,4.27,4.27,0,0,0-.64,1.4,6.92,6.92,0,0,0-.2,1.66v11H479V216.3a4.9,4.9,0,0,0-.69-2.77,2.47,2.47,0,0,0-2.2-1,2.83,2.83,0,0,0-2.47,1.27,5.31,5.31,0,0,0-.87,3.09v11h-6.73v-20.3h6.48v2.81h.08a7.48,7.48,0,0,1,.92-1.26,5.71,5.71,0,0,1,1.33-1.08,7.8,7.8,0,0,1,1.73-.76,7.36,7.36,0,0,1,2.1-.28,7.23,7.23,0,0,1,3.73.9,6.08,6.08,0,0,1,2.38,2.56,7.67,7.67,0,0,1,2.61-2.52,7.45,7.45,0,0,1,3.87-.94,7.36,7.36,0,0,1,3.49.75,6.55,6.55,0,0,1,2.26,2,8.19,8.19,0,0,1,1.25,2.69,11.89,11.89,0,0,1,.38,2.92v12.55Z"/><path class="cls-1" d="M516.75,201.1a3.47,3.47,0,0,1-.3,1.44,3.74,3.74,0,0,1-.82,1.17,3.79,3.79,0,0,1-1.22.77,4,4,0,0,1-1.49.29,3.73,3.73,0,0,1-2.73-1.08,3.52,3.52,0,0,1-1.1-2.59,3.42,3.42,0,0,1,.29-1.41,3.38,3.38,0,0,1,.81-1.16,4.45,4.45,0,0,1,1.22-.8,3.8,3.8,0,0,1,1.51-.3,4,4,0,0,1,1.49.28,3.81,3.81,0,0,1,1.22.78,3.7,3.7,0,0,1,.82,1.16A3.52,3.52,0,0,1,516.75,201.1Zm-7.17,26.78v-20.3h6.68v20.3Z"/><path class="cls-1" d="M541.25,214.14A4.07,4.07,0,0,0,539.7,213a4.77,4.77,0,0,0-2-.45,4.3,4.3,0,0,0-1.92.43,4.69,4.69,0,0,0-1.46,1.14,5.42,5.42,0,0,0-1,1.65,5.76,5.76,0,0,0-.35,2,6,6,0,0,0,.33,2,4.84,4.84,0,0,0,.95,1.65,4.61,4.61,0,0,0,1.51,1.12,4.71,4.71,0,0,0,2,.41,5.53,5.53,0,0,0,2-.39,3.93,3.93,0,0,0,1.61-1.12l3.71,4.52a8.62,8.62,0,0,1-3.26,1.92,12.91,12.91,0,0,1-4.24.69,13.38,13.38,0,0,1-4.49-.73,10.48,10.48,0,0,1-3.63-2.14,10.18,10.18,0,0,1-2.42-3.4,11.26,11.26,0,0,1-.88-4.53,11.09,11.09,0,0,1,.88-4.48,10.12,10.12,0,0,1,2.42-3.41,11,11,0,0,1,3.63-2.16,13,13,0,0,1,4.45-.75,12.28,12.28,0,0,1,2.18.2,15.48,15.48,0,0,1,2.08.55,9.62,9.62,0,0,1,1.83.86,7.63,7.63,0,0,1,1.45,1.12Z"/><path class="cls-1" d="M574.82,217.65a10.89,10.89,0,0,1-.9,4.5,10,10,0,0,1-2.45,3.43,11.14,11.14,0,0,1-3.58,2.18,12.7,12.7,0,0,1-8.71,0,10.93,10.93,0,0,1-3.58-2.18,10.27,10.27,0,0,1-2.43-3.43,11.68,11.68,0,0,1,0-9,10.16,10.16,0,0,1,2.43-3.38,10.62,10.62,0,0,1,3.58-2.12,13.36,13.36,0,0,1,8.71,0,10.82,10.82,0,0,1,3.58,2.12,9.94,9.94,0,0,1,2.45,3.38A10.85,10.85,0,0,1,574.82,217.65Zm-6.44,0a5.79,5.79,0,0,0-.33-1.92,5.17,5.17,0,0,0-.94-1.65,4.75,4.75,0,0,0-1.51-1.16,4.69,4.69,0,0,0-5.64,1.16,4.9,4.9,0,0,0-.9,1.65,6.29,6.29,0,0,0,0,3.84,5.25,5.25,0,0,0,.92,1.69,4.81,4.81,0,0,0,5.66,1.2,4.46,4.46,0,0,0,1.51-1.2,5.25,5.25,0,0,0,.92-1.69A6.32,6.32,0,0,0,568.38,217.65Z"/><path class="cls-1" d="M196.33,212.55v-.46c3.95-26.57,31.28-77.88,44.64-103.39-14.88.76-32.8,2.13-51.17,3.65-29,27.78-56.78,55.71-77.42,78.18a2.7,2.7,0,0,1-2.28,1.22,3.44,3.44,0,0,1-3.34-3,4.23,4.23,0,0,1,.61-1.82c5.16-10,7.59-19.43,7.59-27.93,0-19.89-13.82-33.56-38.72-33.56l-5.92.15c-2.12,0-2.73-1.51-2.88-3.18a3.06,3.06,0,0,1,2.58-3c15.63-2.58,68.62-8.81,117.05-12.9C224.57,70.6,264.65,32.34,305.34.61A2.89,2.89,0,0,1,307.16,0a3.18,3.18,0,0,1,3.19,3,2.5,2.5,0,0,1-.76,2c-9.87,11.23-34.77,53.14-58.15,97.16,3.95-.15,40.87-1,44.05-1,3.95,0,39.16.47,41.74.78a3.11,3.11,0,0,1-.15,6.22c-3.19-.15-38.4-.78-43.41-.78-3.64,0-41.17.85-45.57,1-13.66,26-41.75,78.19-45.54,104.6a3.09,3.09,0,0,1-3.19,2.58A3,3,0,0,1,196.33,212.55Zm-16.39-99.29c-34.47,3.19-68.63,7-84.57,8.95,17.76,6.23,25.81,20.65,25.81,36.9a59.28,59.28,0,0,1-2.12,15.18C137.12,155.16,158.38,134.06,179.94,113.26Zm64.37-10.93c16.85-31.73,34.61-62.71,47.36-82.59-26.41,22.31-61,53.74-94.73,85.77C214.4,104.15,230.79,102.93,244.31,102.33Z"/><path class="cls-1" d="M254.35,170.34a2.23,2.23,0,0,1,.31-1.37c3.49-7.29,12.9-25.35,17.46-32.79a3.17,3.17,0,0,1,2.58-1.52,3.28,3.28,0,0,1,3.18,3,3.52,3.52,0,0,1-.45,1.67c-1.67,2.88-3.95,6.83-6.23,11.23a142.48,142.48,0,0,1,26.57-19.28,2.79,2.79,0,0,1,1.52-.3,3.08,3.08,0,0,1,3,3.18,3.84,3.84,0,0,1-.46,1.67c-1.67,2.59-3,5.77-3,8.35,0,4.86,6.07,6.68,10.62,7.14l4.41.15c14.27,0,31.12-3.79,42.2-8.8a4.24,4.24,0,0,1,1.37-.31,3.28,3.28,0,0,1,3,3.19,2.82,2.82,0,0,1-1.82,2.73c-11.69,5.47-29.45,9.42-44.48,9.42l-5.16-.16c-8.35-.6-16.4-4.85-16.4-13.05a10,10,0,0,1,.3-2.89c-11.53,7.44-25.8,19.74-32.79,30.37a3.12,3.12,0,0,1-2.43,1.36A3.32,3.32,0,0,1,254.35,170.34Z"/><path class="cls-1" d="M346.66,162.29c0-8.65,7.43-19.28,14.57-25.2,5.31-4.4,10.32-6.23,14.42-6.23,5.32,0,8.81,3,8.81,7.14,0,3.64-2.73,8.2-9.41,12-4.56,2.58-10,4.25-14.28,4.25a10.2,10.2,0,0,1-5-1.06c-1.82,3-3,6.23-3,8.81,0,3.49,2.28,4.86,9.11,5,20.34,0,52.53-14.43,72.11-24.29a2.23,2.23,0,0,1,1.37-.31,3.45,3.45,0,0,1,3.19,3.34,3,3,0,0,1-1.83,2.58c-20.49,10.33-53.44,24.9-75.15,24.9C350.75,173.07,346.66,169,346.66,162.29Zm25.2-17.61c4.4-2.43,6.22-4.86,6.22-6.22,0-1.07-.91-1.67-2.43-1.67-3.64,0-10.78,4.09-16.39,11.23l1.36.15C363.81,148.17,369.28,146.2,371.86,144.68Z"/><path class="cls-1" d="M428.18,161.84c0-7.75,4.7-18.07,9.87-27.64C448.67,114.62,467.2,84.26,477.82,68a2.61,2.61,0,0,1,2.43-1.37,3.33,3.33,0,0,1,3.34,3,2.51,2.51,0,0,1-.61,1.67c-10.77,16.55-28.69,46-39.47,65.89-6.53,12.15-9.11,19.59-9.11,24.29.15,4.41,2.28,5.32,8.05,5.47,17,0,45.85-15,63.76-23.38a2.91,2.91,0,0,1,1.52-.46c1.82,0,2.89,1.82,2.89,3.34a2.83,2.83,0,0,1-1.83,2.73c-18.82,9-48.28,24-66.8,24C432,173.07,428.18,169.12,428.18,161.84Z"/><path class="cls-1" d="M495,165.94c.31-8.2,8.2-19.44,14.12-28.09a2.89,2.89,0,0,1,2.28-1.37,3.33,3.33,0,0,1,3.34,3,2.89,2.89,0,0,1-.61,1.82c-4.55,6.83-12.75,18.52-12.9,24.14v.3c0,.91.61,1.07,1.52,1.07h.91c15.48,0,53.44-15.95,74.39-24.14l1.21-.31c2.13,0,2.59,1.37,3,3.34a3,3,0,0,1-2,2.74c-22.47,8.8-60.12,24.59-77,24.59C497.55,172.92,495,170.79,495,165.94Zm22.78-43.27a3,3,0,0,1,2-2.89l3.95-1.52a3,3,0,0,1,1.06-.15,3.18,3.18,0,0,1,3,3.19,2.7,2.7,0,0,1-2.13,2.73l-3.79,1.67a3,3,0,0,1-1.07.15A3.07,3.07,0,0,1,517.75,122.67Z"/><path class="cls-1" d="M35.22,159.37c0-7.74,4.1-18.22,6.83-24.59-6.52,8.8-22.92,30.82-33.4,30.82C2.73,165.6,0,162.71,0,158c0-10.78,17.61-29.46,28.09-29.46,4.25.16,6.52,1.37,8.19,3.8,16.1-22,29.31-45.55,44.64-67.86a2.77,2.77,0,0,1,2.43-1.22,3.18,3.18,0,0,1,3.19,3,1.78,1.78,0,0,1-.31,1.21C74.09,88,41.6,138,41.45,158.92v.61c0,2.73,1.06,4.4,3.34,4.4,9,0,18.52-1.62,36.28-12.25a2.93,2.93,0,0,1,1.52-.45,3.31,3.31,0,0,1,3.19,3.19A2.83,2.83,0,0,1,84.26,157c-18.68,11.23-28.85,13.15-39.47,13.15C37.5,170,35.22,165.45,35.22,159.37Zm-3-21.4c-.46-2.13-1.52-3.19-4.26-3.34-7.28,0-21.71,16.54-21.71,22.62,0,1.36.61,2.12,2.43,2.28C13.82,159.53,22.47,150.57,32.19,138Z"/></g></g></svg>