<svg xmlns="http://www.w3.org/2000/svg" viewBox="0 0 438.65 438.65"><defs><style>.cls-1{fill:#010101;}</style></defs><g id="Capa_2" data-name="Capa 2"><g id="Capa_1-2" data-name="Capa 1"><path class="cls-1" d="M115,252.68c9.17-8.57,19.15-17.89,30.94-29.16-35.85,3.38-57.73,5.74-75.92,7.89,12.52,4.25,18.33,13.93,18.33,35.9a39.69,39.69,0,0,1-2.73,13.18C95.21,271.13,104.48,262.48,115,252.68Z"/><path class="cls-1" d="M169.57,200.84c54.44-52,114.19-109,175.17-161.4A218.25,218.25,0,0,0,219.32,0C98.21,0,0,98.16,0,219.26,31.17,214.73,85,208,169.57,200.84Z"/><path class="cls-1" d="M436.89,192a218.5,218.5,0,0,0-58.3-123.33c-20.59,34.24-45,77.46-69.52,123.33,23.51-.2,97-.21,113.32-.21C427.77,191.74,432.6,191.76,436.89,192Z"/><path class="cls-1" d="M285.52,192.46c26.94-50.64,54.78-99.9,78.05-138.28-.6-.52-1.2-1-1.81-1.56C315.38,92.83,259.07,144.09,202.15,198,235.08,195.47,262.32,193.54,285.52,192.46Z"/><path class="cls-1" d="M418.68,212.28c-11,0-103.17,0-120.61.26L294.66,219c-27.94,53-75,168.33-82.92,219.46,2.52.08,5,.19,7.58.19,121.13,0,219.33-98.19,219.33-219.33,0-2.21-.1-4.39-.17-6.59C432.94,212.49,426.94,212.28,418.68,212.28Z"/><path class="cls-1" d="M274.24,214l.2-.38c-24.46,1.35-54.5,3.52-95.87,6.94-12.16,11.64-23.2,22.14-33.44,31.88-38.48,36.59-66.28,63-99.33,99a7.35,7.35,0,0,1-.83.94A219,219,0,0,0,191,436.77C198.93,384.07,246.26,267.31,274.24,214Z"/><path class="cls-1" d="M65.94,248c-7.16-7.61-24.51-7-46.47-6.12-5.72.22-11.89.4-18.26.52a218,218,0,0,0,31.71,92.51C56.06,306.1,68.5,283.92,70.05,268.4,71,258.63,69.68,251.94,65.94,248Z"/></g></g></svg>