<?xml version="1.0" encoding="UTF-8"?>
<svg id="Capa_2" data-name="Capa 2" xmlns="http://www.w3.org/2000/svg" viewBox="0 0 586.54 237.33">
  <defs>
    <style>
      .cls-1 {
        fill: #1e1e1c;
        stroke: #1e1e1c;
        stroke-miterlimit: 10;
        stroke-width: 1.27px;
      }

      .cls-2 {
        letter-spacing: .16em;
      }

      .cls-3 {
        letter-spacing: .17em;
      }

      .cls-4 {
        letter-spacing: .14em;
      }

      .cls-5 {
        letter-spacing: .14em;
      }

      .cls-6 {
        letter-spacing: .14em;
      }

      .cls-7 {
        letter-spacing: .14em;
      }

      .cls-8 {
        letter-spacing: .14em;
      }

      .cls-9 {
        letter-spacing: .15em;
      }

      .cls-10 {
        letter-spacing: .15em;
      }

      .cls-11 {
        letter-spacing: .15em;
      }

      .cls-12 {
        letter-spacing: .14em;
      }

      .cls-13 {
        fill: #010101;
        font-family: AvenirNext-Bold, 'Avenir Next';
        font-size: 40.77px;
        font-weight: 700;
      }
    </style>
  </defs>
  <g id="Capa_1-2" data-name="Capa 1">
    <g>
      <text class="cls-13" transform="translate(238.28 217.52)"><tspan class="cls-12" x="0" y="0">g</tspan><tspan class="cls-11" x="32.66" y="0">a</tspan><tspan class="cls-3" x="61.71" y="0">s</tspan><tspan class="cls-2" x="87.83" y="0">t</tspan><tspan class="cls-9" x="109.58" y="0">r</tspan><tspan class="cls-6" x="131.79" y="0">o</tspan><tspan class="cls-5" x="163.35" y="0">n</tspan><tspan class="cls-6" x="194.24" y="0">ó</tspan><tspan class="cls-4" x="225.8" y="0">m</tspan><tspan class="cls-8" x="269.24" y="0">i</tspan><tspan class="cls-7" x="286.97" y="0">c</tspan><tspan class="cls-10" x="313.04" y="0">o</tspan></text>
      <g>
        <path class="cls-1" d="M196.97,213.18v-.46c3.95-26.57,31.27-77.88,44.63-103.39-14.88.76-32.79,2.13-51.16,3.64-29,27.78-56.78,55.72-77.43,78.19-.61.91-1.52,1.21-2.28,1.21-1.67,0-3.34-1.52-3.34-3.04,0-.61.3-1.21.61-1.82,5.16-10.02,7.59-19.43,7.59-27.93,0-19.89-13.82-33.55-38.71-33.55l-5.92.15c-2.13,0-2.73-1.52-2.88-3.19,0-1.37.91-2.73,2.58-3.04,15.64-2.58,68.62-8.8,117.05-12.9,37.5-35.83,77.58-74.09,118.27-105.82.61-.46,1.21-.61,1.82-.61,1.67,0,3.19,1.37,3.19,3.04,0,.76-.15,1.37-.76,1.97-9.87,11.23-34.77,53.14-58.15,97.16,3.95-.15,7.44-.15,10.63-.15,3.95,0,7.29,0,9.87.3,1.97.15,2.88,1.67,2.88,3.19-.15,1.52-1.06,3.04-3.04,3.04-3.19-.15-6.53-.3-11.54-.3-3.64,0-7.74,0-12.15.15-13.66,25.96-41.75,78.19-45.55,104.6-.3,1.82-1.82,2.58-3.19,2.58-1.52,0-3.04-1.21-3.04-3.04ZM180.57,113.89c-34.46,3.19-68.62,6.98-84.56,8.96,17.76,6.22,25.81,20.65,25.81,36.89,0,5.01-.76,10.02-2.13,15.18,18.07-19.13,39.32-40.23,60.88-61.03ZM244.94,102.96c16.85-31.73,34.61-62.7,47.37-82.59-26.42,22.32-61.03,53.74-94.74,85.78,17.46-1.37,33.86-2.58,47.37-3.19Z"/>
        <path class="cls-1" d="M257.99,153.97c0-.46,0-.91.3-1.37,3.49-7.29,12.91-25.35,17.46-32.79.76-1.06,1.67-1.52,2.58-1.52,1.67,0,3.19,1.52,3.19,3.04,0,.61-.15,1.06-.46,1.67-1.67,2.89-3.95,6.83-6.22,11.23,8.05-7.44,17.76-14.42,26.57-19.28.46-.3,1.06-.3,1.52-.3,1.82,0,3.04,1.52,3.04,3.19,0,.46-.15,1.06-.46,1.67-1.67,2.58-3.04,5.77-3.04,8.35,0,4.86,6.07,6.68,10.63,7.14l4.4.15c14.27,0,31.12-3.8,42.2-8.81.46-.15.91-.3,1.37-.3,1.67,0,3.04,1.67,3.04,3.19,0,1.06-.46,2.13-1.82,2.73-11.69,5.47-29.45,9.41-44.48,9.41l-5.16-.15c-8.35-.61-16.4-4.86-16.4-13.06,0-.91,0-1.82.3-2.88-11.54,7.44-25.81,19.74-32.79,30.36-.76.91-1.52,1.37-2.43,1.37-1.67,0-3.34-1.37-3.34-3.04Z"/>
        <path class="cls-1" d="M350.29,145.93c0-8.65,7.44-19.28,14.57-25.2,5.31-4.4,10.32-6.23,14.42-6.23,5.31,0,8.81,3.04,8.81,7.14,0,3.64-2.73,8.2-9.41,11.99-4.55,2.58-10.02,4.25-14.27,4.25-1.97,0-3.64-.3-5.01-1.06-1.82,3.04-3.04,6.22-3.04,8.81,0,3.49,2.28,4.86,9.11,5.01,20.34,0,52.53-14.42,72.11-24.29.46-.3.91-.3,1.37-.3,1.67,0,3.19,1.67,3.19,3.34,0,.91-.61,1.97-1.82,2.58-20.5,10.32-53.44,24.9-75.15,24.9-10.78-.15-14.88-4.25-14.88-10.93ZM375.5,128.32c4.4-2.43,6.22-4.86,6.22-6.22,0-1.06-.91-1.67-2.43-1.67-3.64,0-10.78,4.1-16.4,11.23l1.37.15c3.19,0,8.65-1.97,11.24-3.49Z"/>
        <path class="cls-1" d="M431.81,145.47c0-7.74,4.71-18.07,9.87-27.63,10.63-19.58,29.15-49.95,39.78-66.19.61-1.06,1.52-1.37,2.43-1.37,1.82,0,3.34,1.52,3.34,3.04,0,.61-.15,1.06-.61,1.67-10.78,16.55-28.69,46-39.47,65.89-6.53,12.14-9.11,19.58-9.11,24.29.15,4.4,2.28,5.31,8.05,5.47,17,0,45.85-15.03,63.76-23.38.46-.3,1.06-.46,1.52-.46,1.82,0,2.89,1.82,2.89,3.34,0,1.06-.46,2.12-1.82,2.73-18.82,8.96-48.28,23.99-66.8,23.99-10.02-.15-13.82-4.1-13.82-11.39Z"/>
        <path class="cls-1" d="M498.61,149.57c.3-8.2,8.2-19.43,14.12-28.09.61-.91,1.52-1.37,2.28-1.37,1.82,0,3.34,1.52,3.34,3.04,0,.61-.15,1.21-.61,1.82-4.55,6.83-12.75,18.52-12.91,24.14v.3c0,.91.61,1.06,1.52,1.06h.91c15.49,0,53.44-15.94,74.39-24.14l1.21-.3c2.12,0,2.58,1.37,3.04,3.34,0,1.06-.61,2.13-1.97,2.73-22.47,8.81-60.12,24.59-76.97,24.59-5.77-.15-8.35-2.28-8.35-7.13ZM521.38,106.3c0-1.21.61-2.28,1.97-2.88l3.95-1.52c.46-.15.76-.15,1.06-.15,1.82,0,3.04,1.67,3.04,3.19,0,1.21-.61,2.28-2.12,2.73l-3.8,1.67c-.46.15-.76.15-1.06.15-1.82,0-3.04-1.52-3.04-3.19Z"/>
      </g>
      <path class="cls-1" d="M35.86,149.01c0-7.74,4.1-18.22,6.83-24.59-6.53,8.81-22.92,30.82-33.4,30.82-5.92,0-8.65-2.88-8.65-7.59,0-10.78,17.61-29.45,28.09-29.45,4.25.15,6.53,1.37,8.2,3.8,16.09-22.01,29.3-45.55,44.63-67.86.61-.91,1.52-1.21,2.43-1.21,1.67,0,3.19,1.37,3.19,3.04,0,.46,0,.76-.3,1.21-12.15,20.5-44.63,70.44-44.79,91.4v.61c0,2.73,1.06,4.4,3.34,4.4,8.96,0,18.52-1.62,36.28-12.24.46-.3,1.06-.46,1.52-.46,1.52,0,3.19,1.37,3.19,3.19,0,1.06-.46,1.97-1.52,2.58-18.67,11.23-28.84,13.16-39.47,13.16-7.29-.15-9.56-4.71-9.56-10.78ZM32.82,127.6c-.46-2.12-1.52-3.19-4.25-3.34-7.29,0-21.71,16.55-21.71,22.62,0,1.37.61,2.13,2.43,2.28,5.16,0,13.82-8.96,23.53-21.56Z"/>
    </g>
  </g>
</svg>