<svg xmlns="http://www.w3.org/2000/svg" viewBox="0 0 582.27 215.58"><defs><style>.cls-1{fill:#010101;}</style></defs><g id="Capa_2" data-name="Capa 2"><g id="Capa_1-2" data-name="Capa 1"><path class="cls-1" d="M196.33,212.55v-.46c3.95-26.57,31.28-77.88,44.64-103.39-14.88.76-32.8,2.13-51.17,3.65-29,27.78-56.78,55.71-77.42,78.18a2.7,2.7,0,0,1-2.28,1.22,3.44,3.44,0,0,1-3.34-3,4.23,4.23,0,0,1,.61-1.82c5.16-10,7.59-19.43,7.59-27.93,0-19.89-13.82-33.56-38.72-33.56l-5.92.15c-2.12,0-2.73-1.51-2.88-3.18a3.06,3.06,0,0,1,2.58-3c15.63-2.58,68.62-8.81,117.05-12.9C224.57,70.6,264.65,32.34,305.34.61A2.89,2.89,0,0,1,307.16,0a3.18,3.18,0,0,1,3.19,3,2.5,2.5,0,0,1-.76,2c-9.87,11.23-34.77,53.14-58.15,97.16,3.95-.15,40.87-1,44.05-1,3.95,0,39.16.47,41.74.78a3.11,3.11,0,0,1-.15,6.22c-3.19-.15-38.4-.78-43.41-.78-3.64,0-41.17.85-45.57,1-13.66,26-41.75,78.19-45.54,104.6a3.09,3.09,0,0,1-3.19,2.58A3,3,0,0,1,196.33,212.55Zm-16.39-99.29c-34.47,3.19-68.63,7-84.57,8.95,17.76,6.23,25.81,20.65,25.81,36.9a59.28,59.28,0,0,1-2.12,15.18C137.12,155.16,158.38,134.06,179.94,113.26Zm64.37-10.93c16.85-31.73,34.61-62.71,47.36-82.59-26.41,22.31-61,53.74-94.73,85.77C214.4,104.15,230.79,102.93,244.31,102.33Z"/><path class="cls-1" d="M254.35,170.34a2.23,2.23,0,0,1,.31-1.37c3.49-7.29,12.9-25.35,17.46-32.79a3.17,3.17,0,0,1,2.58-1.52,3.28,3.28,0,0,1,3.18,3,3.52,3.52,0,0,1-.45,1.67c-1.67,2.88-3.95,6.83-6.23,11.23a142.48,142.48,0,0,1,26.57-19.28,2.79,2.79,0,0,1,1.52-.3,3.08,3.08,0,0,1,3,3.18,3.84,3.84,0,0,1-.46,1.67c-1.67,2.59-3,5.77-3,8.35,0,4.86,6.07,6.68,10.62,7.14l4.41.15c14.27,0,31.12-3.79,42.2-8.8a4.24,4.24,0,0,1,1.37-.31,3.28,3.28,0,0,1,3,3.19,2.82,2.82,0,0,1-1.82,2.73c-11.69,5.47-29.45,9.42-44.48,9.42l-5.16-.16c-8.35-.6-16.4-4.85-16.4-13.05a10,10,0,0,1,.3-2.89c-11.53,7.44-25.8,19.74-32.79,30.37a3.12,3.12,0,0,1-2.43,1.36A3.32,3.32,0,0,1,254.35,170.34Z"/><path class="cls-1" d="M346.66,162.29c0-8.65,7.43-19.28,14.57-25.2,5.31-4.4,10.32-6.23,14.42-6.23,5.32,0,8.81,3,8.81,7.14,0,3.64-2.73,8.2-9.41,12-4.56,2.58-10,4.25-14.28,4.25a10.2,10.2,0,0,1-5-1.06c-1.82,3-3,6.23-3,8.81,0,3.49,2.28,4.86,9.11,5,20.34,0,52.53-14.43,72.11-24.29a2.23,2.23,0,0,1,1.37-.31,3.45,3.45,0,0,1,3.19,3.34,3,3,0,0,1-1.83,2.58c-20.49,10.33-53.44,24.9-75.15,24.9C350.75,173.07,346.66,169,346.66,162.29Zm25.2-17.61c4.4-2.43,6.22-4.86,6.22-6.22,0-1.07-.91-1.67-2.43-1.67-3.64,0-10.78,4.09-16.39,11.23l1.36.15C363.81,148.17,369.28,146.2,371.86,144.68Z"/><path class="cls-1" d="M428.18,161.84c0-7.75,4.7-18.07,9.87-27.64C448.67,114.62,467.2,84.26,477.82,68a2.61,2.61,0,0,1,2.43-1.37,3.33,3.33,0,0,1,3.34,3,2.51,2.51,0,0,1-.61,1.67c-10.77,16.55-28.69,46-39.47,65.89-6.53,12.15-9.11,19.59-9.11,24.29.15,4.41,2.28,5.32,8.05,5.47,17,0,45.85-15,63.76-23.38a2.91,2.91,0,0,1,1.52-.46c1.82,0,2.89,1.82,2.89,3.34a2.83,2.83,0,0,1-1.83,2.73c-18.82,9-48.28,24-66.8,24C432,173.07,428.18,169.12,428.18,161.84Z"/><path class="cls-1" d="M495,165.94c.31-8.2,8.2-19.44,14.12-28.09a2.89,2.89,0,0,1,2.28-1.37,3.33,3.33,0,0,1,3.34,3,2.89,2.89,0,0,1-.61,1.82c-4.55,6.83-12.75,18.52-12.9,24.14v.3c0,.91.61,1.07,1.52,1.07h.91c15.48,0,53.44-15.95,74.39-24.14l1.21-.31c2.13,0,2.59,1.37,3,3.34a3,3,0,0,1-2,2.74c-22.47,8.8-60.12,24.59-77,24.59C497.55,172.92,495,170.79,495,165.94Zm22.78-43.27a3,3,0,0,1,2-2.89l3.95-1.52a3,3,0,0,1,1.06-.15,3.18,3.18,0,0,1,3,3.19,2.7,2.7,0,0,1-2.13,2.73l-3.79,1.67a3,3,0,0,1-1.07.15A3.07,3.07,0,0,1,517.75,122.67Z"/><path class="cls-1" d="M35.22,159.37c0-7.74,4.1-18.22,6.83-24.59-6.52,8.8-22.92,30.82-33.4,30.82C2.73,165.6,0,162.71,0,158c0-10.78,17.61-29.46,28.09-29.46,4.25.16,6.52,1.37,8.19,3.8,16.1-22,29.31-45.55,44.64-67.86a2.77,2.77,0,0,1,2.43-1.22,3.18,3.18,0,0,1,3.19,3,1.78,1.78,0,0,1-.31,1.21C74.09,88,41.6,138,41.45,158.92v.61c0,2.73,1.06,4.4,3.34,4.4,9,0,18.52-1.62,36.28-12.25a2.93,2.93,0,0,1,1.52-.45,3.31,3.31,0,0,1,3.19,3.19A2.83,2.83,0,0,1,84.26,157c-18.68,11.23-28.85,13.15-39.47,13.15C37.5,170,35.22,165.45,35.22,159.37Zm-3-21.4c-.46-2.13-1.52-3.19-4.26-3.34-7.28,0-21.71,16.54-21.71,22.62,0,1.36.61,2.12,2.43,2.28C13.82,159.53,22.47,150.57,32.19,138Z"/></g></g></svg>