<?xml version="1.0" encoding="UTF-8"?>
<svg id="Capa_2" data-name="Capa 2" xmlns="http://www.w3.org/2000/svg" viewBox="0 0 438.65 438.65">
  <defs>
    <style>
      .cls-1 {
        fill: #1d1d1b;
      }
    </style>
  </defs>
  <g id="Capa_1-2" data-name="Capa 1">
    <g>
      <path class="cls-1" d="M114.97,252.68c9.17-8.57,19.16-17.89,30.94-29.16-35.85,3.38-57.73,5.74-75.91,7.89,12.51,4.25,18.33,13.93,18.33,35.9,0,3.46-.83,7.95-2.73,13.18,9.62-9.36,18.89-18.01,29.38-27.81Z"/>
      <path class="cls-1" d="M169.57,200.84c54.44-52.01,114.19-109.02,175.17-161.4C309.19,14.61,265.98,0,219.32,0,98.21,0,.03,98.16,0,219.26c31.17-4.54,85.03-11.24,169.57-18.42Z"/>
      <path class="cls-1" d="M436.89,191.95c-5.92-47.5-27.01-90.27-58.3-123.32-20.59,34.23-45.04,77.45-69.52,123.33,23.5-.2,96.99-.21,113.32-.21,5.38,0,10.21.02,14.5.21Z"/>
      <path class="cls-1" d="M285.52,192.46c26.94-50.65,54.78-99.9,78.05-138.28-.6-.52-1.2-1.05-1.8-1.56-46.38,40.21-102.69,91.48-159.62,145.39,32.94-2.54,60.17-4.46,83.37-5.54Z"/>
      <path class="cls-1" d="M418.68,212.28c-11.02,0-103.16,0-120.61.26l-3.41,6.46c-27.94,52.99-75.04,168.33-82.92,219.46,2.52.09,5.04.19,7.58.19,121.13,0,219.32-98.2,219.32-219.33,0-2.21-.1-4.4-.17-6.59-5.54-.25-11.54-.45-19.81-.45Z"/>
      <path class="cls-1" d="M274.24,213.95l.2-.38c-24.46,1.35-54.5,3.53-95.87,6.94-12.16,11.64-23.2,22.14-33.44,31.88-38.48,36.59-66.28,63.04-99.34,99-.22.34-.54.64-.82.95,34.67,45.38,86.64,76.78,146.07,84.44,7.89-52.71,55.21-169.46,83.2-222.83Z"/>
      <path class="cls-1" d="M65.94,247.96c-7.16-7.61-24.51-6.95-46.47-6.12-5.71.22-11.89.4-18.26.52,3.52,33.7,14.69,65.11,31.71,92.52,23.15-28.78,35.58-50.96,37.13-66.47.97-9.77-.37-16.46-4.11-20.44Z"/>
    </g>
  </g>
</svg>